<?xml version="1.0" encoding="UTF-8" standalone="no"?>
<svg width="27px" height="27px" viewBox="0 0 27 27" version="1.1" xmlns="http://www.w3.org/2000/svg" xmlns:xlink="http://www.w3.org/1999/xlink" xmlns:sketch="http://www.bohemiancoding.com/sketch/ns">
    <!-- Generator: Sketch 3.5.1 (25234) - http://www.bohemiancoding.com/sketch -->
    <title>arrow</title>
    <desc>Created with Sketch.</desc>
    <defs></defs>
    <g id="Page-1" stroke="none" stroke-width="1" fill="none" fill-rule="evenodd" sketch:type="MSPage">
        <path d="M15.8888889,13 L17.007983,13 C18.0998238,13 18.4927678,12.2622078 17.8670653,11.3520949 L14.6329347,6.64790507 C14.0075684,5.73828125 12.9927678,5.73779223 12.3670653,6.64790507 L9.13293473,11.3520949 C8.50756836,12.2617188 8.8918564,13 9.99201702,13 L11.1111111,13 L11.8891617,20.0024554 C11.9504098,20.5536886 12.4472481,21 12.9989566,21 L14.0010434,21 C14.5573397,21 15.049624,20.553384 15.1108383,20.0024554 L15.8888889,13 Z M13.5,27 C20.9558441,27 27,20.9558441 27,13.5 C27,6.04415588 20.9558441,0 13.5,0 C6.04415588,0 0,6.04415588 0,13.5 C0,20.9558441 6.04415588,27 13.5,27 Z" id="arrow" fill="#FFFFFF" sketch:type="MSShapeGroup" transform="translate(13.500000, 13.500000) rotate(-270.000000) translate(-13.500000, -13.500000) "></path>
    </g>
</svg>