<svg width="93" height="99" viewBox="0 0 93 99" xmlns="http://www.w3.org/2000/svg"><title>bitcoin</title><g fill="none" fill-rule="evenodd"><path d="M91.587 60.745c-6.2 24.86-31.395 40.042-56.317 33.842C10.394 88.372-4.772 63.192 1.428 38.33c6.2-24.86 31.38-40.04 56.24-33.84 24.938 6.123 40.104 31.38 33.92 56.255z" fill="#F2A900"/><path d="M68.52 43.498c.835-6.2-3.876-9.437-10.334-11.625l2.006-8.39-5.106-1.23-1.945 8.206c-1.352-.32-2.72-.64-4.072-.912l1.945-8.206-5.166-1.23-2.006 8.387c-1.093-.26-2.203-.457-3.297-.715l-7.036-1.687-1.29 5.425s3.813.836 3.676.912c2.067.516 2.462 1.87 2.386 2.902l-2.265 9.56c.136.06.32.06.516.196-.196-.06-.318-.06-.515-.12l-3.1 13.37c-.26.64-.912 1.55-2.325 1.232.06.06-3.754-.912-3.754-.912l-2.416 5.88 6.656 1.55c1.23.32 2.462.58 3.617.913l-2.006 8.464 5.106 1.23 2.006-8.387c1.427.38 2.78.714 4.07 1.033l-2.005 8.328 5.106 1.23 2.007-8.464c8.723 1.55 15.242.836 17.886-7.112 2.127-6.336-.198-9.953-4.848-12.34 3.404-.774 5.866-2.977 6.504-7.49zM57.03 59.955c-1.488 6.337-12.202 3.04-15.636 2.203l2.644-11.245c3.495.85 14.543 2.4 12.993 9.042zm1.414-16.457c-1.352 5.744-10.272 2.978-13.175 2.264l2.46-10.197c2.843.7 12.143 1.93 10.714 7.933z" fill="#FFF"/></g></svg>