<svg width="167" height="76" viewBox="0 0 167 76" xmlns="http://www.w3.org/2000/svg">
  <title>
    Artboard
  </title>
  <g fill="#FFF" fill-rule="evenodd">
    <path d="M14.187 32.02c-1.783.195-3.462.602-5.037 1.22-1.574.62-3.11 1.366-4.61 2.237-.39.22-.705.252-.95.097-.244-.154-.38-.326-.41-.515.067-.347.24-.647.516-.902 3.25-2.276 6.67-3.47 10.262-3.58.18.024.342.126.485.306.143.18.208.342.195.484-.007.178-.036.327-.087.45-.05.123-.172.19-.363.203zm-2.235 9.573c.03.19-.008.366-.113.533-.107.166-.252.282-.435.346-.336.106-.568.08-.7-.074-.13-.156-.22-.344-.273-.565-.208-1.2-.42-2.394-.634-3.584-.214-1.19-.46-2.38-.736-3.568-.01-.07-.033-.15-.065-.24-.032-.093-.047-.187-.045-.285.002-.097.028-.184.077-.263.05-.078.14-.145.27-.2.385-.133.68-.113.882.057.203.172.32.35.35.54.333 1.215.613 2.43.84 3.644.228 1.214.42 2.434.58 3.66zm12.674-9.033c.198.92.402 1.847.612 2.782.21.935.37 1.865.48 2.79.113.924.165 1.835.157 2.735-.007.9-.12 1.775-.336 2.628-.218.853-.56 1.67-1.027 2.447-.466.778-1.094 1.512-1.883 2.2-.124.108-.266.183-.426.226-.16.043-.32.064-.48.063-.158 0-.302-.022-.432-.063-.13-.04-.22-.11-.27-.208-.076-.147-.078-.323-.005-.528.073-.206.214-.43.422-.675.665-.686 1.205-1.388 1.62-2.105.414-.717.718-1.47.91-2.257.192-.788.267-1.623.224-2.505-.043-.883-.198-1.83-.464-2.845-.165.29-.363.594-.595.913-.23.318-.484.61-.76.873-.275.264-.564.495-.867.693-.303.197-.6.32-.893.366-.24.037-.49.023-.746-.042-.258-.065-.53-.224-.816-.478-.332-.317-.642-.686-.928-1.108-.287-.42-.542-.834-.765-1.24-.22-.404-.407-.77-.556-1.1-.15-.328-.243-.56-.282-.694-.06-.166-.087-.33-.077-.49.01-.16.106-.272.29-.336.25-.092.493-.113.73-.063.236.05.413.163.53.338.097.178.238.455.42.83.184.377.392.745.625 1.104.233.36.47.67.715.93.243.26.477.374.7.338.258-.04.542-.218.854-.53.31-.315.596-.703.857-1.167.26-.464.468-.968.62-1.51.15-.545.19-1.057.113-1.538-.017-.103-.02-.226-.006-.37.013-.142.043-.283.09-.423.05-.14.114-.264.193-.373.08-.11.17-.182.27-.216.27-.078.526-.044.77.103.242.146.38.314.41.503zm8.584 9.84c.013.19-.045.38-.174.568-.13.188-.29.288-.48.3-.296.03-.537-.047-.724-.228-.187-.182-.292-.34-.313-.48-.105-.652-.23-1.332-.377-2.04-.148-.706-.307-1.434-.478-2.182-.218.07-.423.08-.616.032-.193-.05-.338-.154-.434-.315-.166-.273-.19-.533-.07-.78.12-.248.334-.503.645-.763-.186-.622-.367-1.236-.542-1.842-.175-.606-.352-1.195-.53-1.765-.034-.1-.04-.196-.02-.288.02-.09.05-.18.09-.265.04-.085.123-.173.25-.264.21-.12.473-.092.792.086.32.178.557.43.714.758.104.32.22.683.345 1.095.126.41.255.862.385 1.352.326-.282.627-.576.904-.884.276-.308.507-.626.693-.955.185-.328.313-.66.383-.997.07-.337.052-.673-.054-1.01-.08-.285-.25-.527-.51-.723-.26-.197-.633-.266-1.117-.207-.432.05-.85.153-1.26.305-.406.153-.8.33-1.182.53-.382.203-.75.428-1.108.68-.357.25-.7.497-1.03.743-.22.176-.447.27-.683.28-.236.012-.4-.046-.49-.173-.21-.32-.245-.63-.108-.933.137-.304.375-.606.715-.906.295-.24.656-.496 1.08-.765.423-.27.877-.518 1.36-.744.484-.228.983-.412 1.498-.555.514-.143 1.018-.214 1.51-.213.494 0 .954.095 1.38.283.426.188.797.503 1.114.946.417.745.613 1.458.59 2.14-.025.68-.187 1.323-.488 1.926-.3.602-.696 1.166-1.185 1.693-.49.525-.99 1.005-1.503 1.438.233.914.44 1.824.617 2.73.18.904.314 1.7.406 2.39zm10.294-10.717c-.608.5-1.28.92-2.02 1.257-.74.337-1.555.577-2.448.718.13.596.377 1.045.742 1.35.365.302.785.45 1.26.446.28-.01.557-.062.833-.158.276-.097.53-.22.76-.37.232-.153.44-.313.624-.483.184-.17.343-.336.476-.498.133-.162.282-.278.447-.348.165-.07.293-.095.384-.074.255.047.382.292.38.732-.187.593-.508 1.124-.962 1.592-.454.468-.99.804-1.61 1.008-.533.19-1.104.254-1.712.192-.61-.063-1.18-.28-1.715-.653-.457-.333-.83-.75-1.12-1.25-.292-.5-.508-1.028-.65-1.587-.135-.524-.168-1.038-.098-1.542s.23-.966.48-1.384c.252-.417.59-.783 1.015-1.097.426-.314.945-.537 1.558-.67.73-.168 1.423-.137 2.075.094.653.232 1.146.62 1.48 1.166.188.305.272.582.25.832-.022.25-.164.493-.426.728zm-3.24-1.283c-.167.062-.342.15-.526.268-.184.117-.348.253-.49.408-.143.155-.266.324-.37.507-.102.184-.146.38-.13.59.292-.047.61-.124.954-.23.344-.11.677-.228 1-.358.322-.13.617-.27.884-.417.268-.148.486-.297.656-.448-.19-.304-.474-.466-.856-.485-.382-.018-.756.036-1.123.165zm16.885-5.448c-.008.177-.113.29-.317.34-.203.05-.373.086-.51.108-.427.085-.863.198-1.307.34-.445.14-.905.32-1.38.535-.197.1-.424.11-.684.03-.26-.084-.443-.3-.552-.653-.022-.138.012-.258.102-.36.09-.102.197-.198.324-.29.207-.137.46-.27.756-.396.297-.126.6-.232.914-.316.312-.085.615-.146.908-.184.294-.038.54-.046.736-.024.288.042.528.137.718.282.19.146.288.342.29.588zm.766 8.674c.163.256.275.542.334.858.06.317.003.55-.167.7-.216.193-.475.225-.777.097-.302-.127-.545-.327-.728-.597-.247-.33-.463-.75-.65-1.257-.185-.508-.344-1.015-.477-1.522-.133-.508-.24-.984-.318-1.43-.08-.444-.137-.78-.172-1.002-.02-.243.012-.477.1-.702.087-.226.223-.37.407-.435.31-.03.583.07.814.307.232.236.37.554.416.95.05.31.112.653.19 1.028.076.375.17.748.28 1.117.113.37.23.726.355 1.067.126.34.257.615.396.822zm3.107-7.227c.093.248.194.527.304.835.11.31.227.625.35.95.12.323.234.653.34.988.106.335.2.655.284.96.137-.48.285-.988.447-1.524.16-.538.35-1.04.567-1.504.217-.466.463-.862.737-1.187.275-.326.6-.518.98-.578.566-.09 1.075.04 1.527.392.452.35.86.81 1.222 1.378.362.567.673 1.174.934 1.82.26.645.484 1.217.668 1.716.177.447.025.823-.455 1.128-.22.16-.4.204-.533.138-.134-.067-.216-.142-.247-.225-.118-.194-.283-.538-.493-1.033-.21-.494-.44-.995-.687-1.502-.248-.507-.506-.94-.775-1.303-.268-.363-.53-.507-.78-.43-.307.065-.545.34-.715.825-.15.393-.296.826-.442 1.298-.145.472-.285.952-.42 1.44-.133.488-.263.975-.388 1.46-.125.488-.244.934-.356 1.34-.1.138-.238.243-.41.315-.175.07-.36.088-.56.05-.18-.025-.332-.09-.454-.193-.122-.104-.193-.216-.212-.337-.367-1.315-.72-2.51-1.056-3.583-.338-1.073-.726-2.165-1.166-3.275-.183-.376-.254-.686-.213-.93.04-.245.278-.375.716-.39.617.006 1.047.326 1.287.957zm18.14-2.874c.092.25.193.528.304.836.11.31.226.625.348.95.122.323.236.653.342.988.106.336.2.655.283.96.136-.48.284-.988.446-1.524.162-.537.35-1.038.567-1.503.217-.466.463-.862.737-1.187.274-.325.6-.517.978-.577.567-.09 1.076.04 1.528.39.452.352.86.81 1.222 1.38.363.566.675 1.173.935 1.818.26.646.484 1.218.668 1.717.178.447.026.824-.454 1.128-.22.16-.4.205-.533.138-.133-.066-.216-.14-.247-.224-.118-.193-.283-.537-.493-1.03-.21-.496-.44-.997-.687-1.504-.247-.506-.506-.94-.774-1.303-.27-.364-.53-.508-.782-.432-.306.066-.544.34-.714.826-.15.393-.296.826-.442 1.298-.145.472-.285.952-.42 1.44-.133.488-.262.975-.388 1.46-.125.488-.244.934-.356 1.34-.1.138-.238.243-.412.315-.174.07-.36.088-.56.05-.18-.025-.33-.09-.453-.193-.122-.104-.193-.216-.212-.337-.367-1.315-.72-2.51-1.056-3.583C78.2 26.09 77.81 25 77.37 23.89c-.182-.377-.253-.687-.212-.93.04-.246.28-.376.717-.392.618.007 1.047.327 1.288.958zm11.63-.944c-.03.48-.052 1.007-.067 1.582-.014.574-.002 1.123.037 1.645.038.52.112.985.22 1.39.108.406.262.68.46.825.3.006.616-.172.946-.533.33-.36.638-.8.926-1.322.287-.52.534-1.075.74-1.662.206-.587.337-1.097.392-1.528.036-.217.062-.44.078-.673.017-.23.006-.467-.033-.708-.02-.138.048-.285.208-.443.16-.157.3-.254.417-.29.083-.03.185-.03.304.004.12.035.236.092.345.17.11.08.213.18.31.296.1.116.158.243.18.38.116.51.258 1.07.424 1.677.166.607.345 1.213.538 1.816.192.602.386 1.188.582 1.756.195.567.38 1.075.558 1.522.08.18.064.404-.053.67-.116.264-.265.437-.446.52-.15.058-.31.066-.485.023-.175-.042-.32-.16-.44-.352-.123-.227-.252-.51-.385-.85-.133-.34-.26-.7-.382-1.076-.12-.377-.235-.737-.342-1.08-.108-.345-.19-.636-.244-.874-.185.505-.415 1.02-.693 1.55-.278.527-.588 1.017-.93 1.467-.343.45-.716.818-1.12 1.102-.404.284-.842.437-1.314.46-.7.022-1.327-.54-1.878-1.685-.213-.46-.362-.98-.446-1.566-.084-.586-.133-1.172-.147-1.76-.013-.588-.005-1.148.025-1.68.03-.534.062-.97.096-1.31.013-.143.062-.28.147-.407.085-.13.2-.186.342-.174.266.01.527.128.782.352.256.223.37.478.346.764zm9.784-2.263c.06.27.144.606.25 1.002.108.397.222.81.343 1.24.12.43.245.855.373 1.275.13.42.247.806.356 1.16.128-.41.286-.91.474-1.503.188-.593.392-1.167.612-1.72.22-.555.462-1.034.724-1.436.262-.403.52-.624.78-.665.274-.044.548.05.822.28.275.228.527.52.76.87.23.35.445.73.642 1.14.197.408.364.77.5 1.082.035-.235.085-.502.152-.803.066-.302.14-.613.22-.934.083-.32.182-.64.3-.958.116-.318.25-.603.404-.857.186-.275.398-.49.638-.642.24-.15.42-.237.54-.256.155-.025.347-.007.577.054.23.06.468.15.716.27.25.118.49.27.72.453.232.185.425.38.58.583.315.425.588.902.82 1.428.235.528.425 1.035.572 1.522.148.487.265.922.352 1.304.087.383.152.65.193.802.036.223.036.395.003.514-.034.12-.114.225-.24.316-.176.116-.335.172-.476.168-.142-.004-.262-.043-.362-.115-.1-.07-.184-.16-.253-.262-.07-.104-.12-.197-.15-.28-.115-.387-.235-.782-.36-1.185s-.253-.792-.383-1.167c-.13-.376-.27-.724-.416-1.044-.147-.32-.292-.6-.436-.842-.046-.063-.116-.144-.21-.244-.096-.1-.2-.193-.31-.28-.11-.09-.214-.16-.31-.216-.097-.055-.164-.088-.2-.1-.173.027-.328.214-.467.562-.14.348-.258.76-.36 1.232-.1.474-.185.968-.254 1.48-.068.513-.11.946-.124 1.3.07.447.036.792-.1 1.034-.14.242-.303.378-.492.407-.19.03-.402-.01-.64-.123-.238-.112-.406-.257-.504-.435-.147-.258-.308-.55-.482-.874l-.54-.998c-.187-.34-.372-.672-.555-.995-.183-.323-.357-.612-.52-.868-.19.364-.368.762-.538 1.194-.17.432-.33.87-.48 1.317-.148.447-.29.887-.423 1.322-.134.435-.262.82-.385 1.157-.09.208-.193.396-.307.564-.114.168-.266.266-.455.296-.137.022-.293-.02-.468-.123-.175-.106-.347-.242-.514-.41-.167-.166-.326-.36-.476-.584-.15-.223-.27-.45-.36-.682-.253-.717-.497-1.51-.732-2.38-.235-.87-.462-1.72-.68-2.547-.064-.29-.068-.566-.013-.83.055-.264.213-.46.474-.59.285-.098.515-.09.69.023.178.113.306.312.387.6zm15.245-7.302c.06.272.127.605.198 1 .07.393.152.82.243 1.28.09.462.19.926.3 1.393.11.468.232.91.37 1.33.188-.47.433-.844.732-1.12.3-.277.617-.468.953-.574.52-.153.995-.167 1.42-.04.425.126.793.336 1.103.63.312.295.56.634.744 1.02.184.383.306.765.366 1.143.128.806.035 1.586-.277 2.34-.312.754-.705 1.44-1.178 2.062-.474.62-.953 1.155-1.437 1.6-.484.448-.834.767-1.05.96-.322.192-.65.28-.99.262-.336-.017-.567-.086-.692-.207-.118-.193-.172-.365-.16-.516.01-.15.058-.295.142-.43.084-.138.192-.265.323-.382.132-.118.242-.228.33-.33-.71-1.824-1.33-3.685-1.86-5.582-.53-1.897-.935-3.845-1.216-5.843-.054-.343-.013-.552.125-.627.137-.075.258-.12.36-.136.247-.004.476.056.69.18.213.126.367.32.462.588zm4.844 6.232c-.093-.584-.303-.97-.632-1.154-.33-.186-.645-.237-.95-.154-.25.075-.468.207-.65.394-.18.187-.332.405-.45.652-.12.248-.197.516-.23.803-.034.288-.022.56.036.814.102.424.223.88.362 1.37.14.487.283.922.43 1.304.246-.233.503-.498.773-.796.27-.298.513-.623.73-.974.218-.35.385-.717.5-1.096.117-.38.143-.767.08-1.162zm9.643-1.316c-.608.5-1.28.92-2.02 1.258-.74.337-1.555.576-2.45.718.13.595.378 1.045.743 1.348.365.303.785.452 1.26.448.28-.01.558-.062.833-.16.275-.095.528-.22.76-.37.23-.15.44-.312.623-.482.184-.17.342-.336.475-.498.133-.162.282-.278.447-.348.165-.07.293-.095.384-.074.255.048.38.292.38.732-.187.593-.508 1.124-.962 1.592-.454.468-.99.804-1.61 1.008-.534.19-1.105.254-1.713.192-.608-.062-1.18-.28-1.714-.653-.457-.332-.83-.75-1.122-1.248-.29-.5-.506-1.03-.648-1.588-.135-.526-.168-1.04-.1-1.544.07-.504.232-.965.482-1.383.25-.42.59-.785 1.015-1.1.426-.313.945-.536 1.558-.668.73-.17 1.423-.137 2.076.094.653.23 1.146.62 1.48 1.164.188.305.27.582.25.832-.023.25-.165.493-.427.728zm-3.242-1.283c-.166.063-.34.152-.525.27-.184.117-.347.253-.49.407-.143.155-.266.324-.37.508-.102.183-.145.38-.13.588.292-.046.61-.123.954-.23.344-.107.677-.226 1-.357.323-.13.618-.27.885-.417.267-.15.485-.298.655-.448-.19-.305-.474-.466-.856-.485-.38-.02-.754.036-1.122.164zm13.305-3.215c-.282.22-.576.452-.88.694-.306.24-.606.513-.902.815-.294.302-.566.645-.813 1.027-.248.383-.455.825-.622 1.327-.24.706-.367 1.408-.38 2.106-.012.697.016 1.375.085 2.034.05.31.025.634-.07.975-.096.34-.273.53-.53.572-.327.052-.615-.074-.866-.378-.25-.304-.434-.605-.552-.904-.485-1.173-.917-2.342-1.295-3.506-.378-1.163-.73-2.327-1.055-3.49-.038-.24.01-.407.146-.5.135-.09.298-.143.49-.156.21-.015.415.005.617.06.203.057.336.177.4.36.17.625.36 1.277.574 1.956.213.68.41 1.26.592 1.742-.024-.595.076-1.192.298-1.79.222-.6.525-1.158.91-1.677.384-.518.84-.978 1.366-1.378.526-.4 1.082-.7 1.667-.898.252-.076.467-.11.644-.103.177.007.307.048.39.123.082.075.116.21.103.406-.013.196-.12.39-.317.58zM148.346 39.514c.945 1.05 1.737 1.942 2.377 2.677.64.737 1.245 1.44 1.817 2.114.572.672 1.172 1.37 1.8 2.093.63.723 1.405 1.585 2.328 2.586.27.3.507.55.71.75.204.202.287.432.25.692-.066.354-.222.6-.468.743-.245.142-.48.29-.7.446-.347.243-.777.62-1.292 1.128-.515.508-1.068 1.07-1.66 1.68-.59.612-1.195 1.252-1.813 1.922-.62.67-1.198 1.288-1.74 1.855-.54.565-1.02 1.046-1.432 1.44-.413.396-.718.636-.912.72-.194.086-.385.094-.572.024-.187-.07-.326-.142-.417-.218-.135-.126-.25-.305-.346-.536-.095-.23-.038-.52.17-.866.08-.138.226-.327.44-.566.216-.238.456-.505.72-.8.267-.296.544-.597.834-.903.29-.306.548-.572.774-.8.88-.88 1.79-1.82 2.736-2.818.945-.998 1.856-1.926 2.734-2.785-.56-.648-1.184-1.36-1.87-2.133-.685-.774-1.387-1.56-2.107-2.36-.72-.8-1.428-1.604-2.123-2.414-.695-.81-1.346-1.564-1.952-2.262-.134-.174-.225-.363-.274-.568-.048-.205.04-.42.266-.647.3-.294.613-.456.936-.487.323-.03.586.066.788.29z"/>
    <path d="M135.373 38.026c.455 1.558 1.242 3.103 2.362 4.633 1.12 1.53 2.428 2.86 3.926 3.988 1.357 1.02 2.82 1.79 4.387 2.312 1.57.523 3.162.633 4.78.33.45-.065.858-.146 1.223-.244.366-.098.7-.155 1.005-.17.304-.017.578.03.823.143.244.11.455.32.63.628.104.178.13.348.08.51-.05.163-.13.315-.24.457-.112.142-.242.266-.39.37-.15.106-.266.18-.35.22-.893.427-1.866.697-2.92.81-1.05.115-2.132.087-3.242-.083-1.11-.17-2.215-.46-3.316-.876-1.1-.414-2.15-.954-3.15-1.62-1.023-.68-1.977-1.436-2.864-2.272-.887-.836-1.67-1.714-2.345-2.635-.675-.92-1.227-1.866-1.654-2.834-.428-.97-.69-1.907-.783-2.816-.034-.196.043-.43.23-.706.19-.274.4-.46.635-.562.27-.11.526-.108.77.004.246.112.38.248.405.41z"/>
  </g>
</svg>
